<svg xmlns="http://www.w3.org/2000/svg" xmlns:xlink="http://www.w3.org/1999/xlink" viewBox="0,0,256,256" width="64px" height="64px"><g fill="#ffffff" fill-rule="nonzero" stroke="none" stroke-width="1" stroke-linecap="butt" stroke-linejoin="miter" stroke-miterlimit="10" stroke-dasharray="" stroke-dashoffset="0" font-family="none" font-weight="none" font-size="none" text-anchor="none" style="mix-blend-mode: normal"><g transform="scale(8,8)"><path d="M16,4c-5.51172,0 -10,4.48828 -10,10v3.59375h0.03125c-0.01953,0.13281 -0.03125,0.26953 -0.03125,0.40625c0,1.32031 0.84375,2.44531 2.03125,2.84375c0.42188,4.01563 3.84375,7.15625 7.96875,7.15625c4.125,0 7.54688,-3.14062 7.96875,-7.15625c1.1875,-0.39844 2.03125,-1.52344 2.03125,-2.84375c0,-0.13672 -0.01172,-0.27344 -0.03125,-0.40625h0.03125v-3.59375c0,-5.51172 -4.48828,-10 -10,-10zM16,6c4.42969,0 8,3.57031 8,8v1.15625c-0.03125,-0.01172 -0.0625,-0.01953 -0.09375,-0.03125c-0.39453,-1.79297 -1.99609,-3.125 -3.90625,-3.125c-0.55078,0 -1,-0.44922 -1,-1v-1h-2v1c0,0.55078 -0.44922,1 -1,1h-4c-1.91016,0 -3.51172,1.33203 -3.90625,3.125c-0.03125,0.01172 -0.0625,0.01953 -0.09375,0.03125v-1.15625c0,-4.42969 3.57031,-8 8,-8zM18,13.21875c0.53125,0.47656 1.23047,0.78125 2,0.78125c1.10156,0 2,0.89844 2,2v1h1c0.55078,0 1,0.44922 1,1c0,0.55078 -0.44922,1 -1,1h-1v1c0,3.30859 -2.69141,6 -6,6c-3.30859,0 -6,-2.69141 -6,-6v-1h-1c-0.55078,0 -1,-0.44922 -1,-1c0,-0.55078 0.44922,-1 1,-1h1v-1c0,-1.10156 0.89844,-2 2,-2h4c0.76953,0 1.46875,-0.30469 2,-0.78125zM13,17c-0.55078,0 -1,0.44922 -1,1c0,0.55078 0.44922,1 1,1c0.55078,0 1,-0.44922 1,-1c0,-0.55078 -0.44922,-1 -1,-1zM19,17c-0.55078,0 -1,0.44922 -1,1c0,0.55078 0.44922,1 1,1c0.55078,0 1,-0.44922 1,-1c0,-0.55078 -0.44922,-1 -1,-1z"></path></g></g></svg>