<svg xmlns="http://www.w3.org/2000/svg" xmlns:xlink="http://www.w3.org/1999/xlink" viewBox="0,0,256,256" width="48px" height="48px"><g fill="none" fill-rule="nonzero" stroke="none" stroke-width="none" stroke-linecap="butt" stroke-linejoin="none" stroke-miterlimit="10" stroke-dasharray="" stroke-dashoffset="0" font-family="none" font-weight="none" font-size="none" text-anchor="none" style="mix-blend-mode: normal"><path transform="translate(0,0) scale(5.33333,5.33333)" d="M21.70142,8.21085c-0.73913,0.71599 -1.51702,1.25551 -2.16003,1.63652c0.82781,0.12761 1.66311,0.24792 2.45862,0.36263c0.16863,0.02446 0.33823,0.04906 0.50865,0.07383c-0.33994,-0.67575 -0.60325,-1.38254 -0.80723,-2.07298zM14.23711,6.50277c-0.84918,0.48571 -1.33318,0.96969 -1.24711,1.39823c0.03,0.149 0.218,0.328 0.53,0.502l-0.00917,0.0164c0.01663,0.00905 0.02981,0.01592 0.03917,0.0206l0.01,0.01c0.60041,0.31712 1.63169,0.59848 2.86328,0.85241c-0.9318,-1.04574 -1.79222,-2.23676 -2.18617,-2.79964zM17.02238,13.26251c0.54584,-0.53279 1.61725,-1.50556 2.94182,-2.3381c-0.7306,-0.10961 -1.41391,-0.21669 -2.04874,-0.32448c-0.05017,-0.00088 -0.10004,-0.00945 -0.14782,-0.02526c-1.32244,-0.22751 -2.42894,-0.45923 -3.30822,-0.72526c0.83421,0.8343 1.83139,1.84576 2.56296,3.4131zM23.00927,14.41024c1.23134,-0.83171 2.60527,-1.66404 4.07067,-2.39541c-1.5211,-0.27293 -3.10069,-0.50676 -4.6178,-0.72639c0.30239,0.67712 0.59646,1.71112 0.54713,3.1218zM27.59448,16.26498c2.0519,-0.86197 4.28473,-1.63772 6.63555,-2.2095c-0.44593,-0.20041 -0.91561,-0.39625 -1.41003,-0.58547c-1.07817,-0.4176 -2.36965,-0.76602 -3.76554,-1.0677c-0.31821,1.29356 -0.84103,2.60588 -1.45998,3.86268zM26.64553,18.03377c-1.17654,2.03319 -2.48199,3.79814 -3.36985,4.92073c2.09453,-0.6682 4.4545,-1.33258 6.96259,-1.93665c-1.00973,-1.16437 -2.25488,-2.15387 -3.59275,-2.98407zM27.83574,25.27276c-0.10823,-0.81138 -0.2586,-1.64301 -0.45721,-2.49286c-1.09666,0.29964 -2.14966,0.60712 -3.14691,0.91661c0.96451,0.43247 2.34437,1.04399 3.60413,1.57625zM24.902,42.798l-0.151,0.202h-0.251c-8.192,0 -17.309,-2.573 -18.386,-6.879c-0.40136,-1.60665 0.24446,-3.3163 1.88432,-5.05667c-0.01614,0.00857 -0.03224,0.01713 -0.04832,0.02567c0.55502,-0.59017 1.19972,-1.15536 1.8961,-1.69031c-0.00403,0.00021 -0.0061,0.00031 -0.0061,0.00031c0.37,-0.38 0.79,-0.78 1.24,-1.21c2.5,-2.42 5.97,-5.73 5.97,-9.69c0,-4.69 -1.89,-6.54 -3.38,-8.02c-0.63598,-0.64561 -1.1791,-1.26337 -1.52201,-2.00538c-0.06562,-0.11854 -0.11171,-0.24318 -0.13799,-0.37462c-0.03175,-0.14967 -0.03881,-0.29935 -0.02306,-0.44809c0.0131,-0.1305 0.04396,-0.25981 0.09265,-0.388c0.01787,-0.04817 0.03802,-0.09615 0.06041,-0.14391c0.00036,0.0006 0.00073,0.00119 0.00109,0.00179c0.46858,-0.96391 1.96017,-1.86525 4.51091,-2.73379c2.316,-0.789 4.652,-1.26 4.751,-1.279l0.597,-0.12l0,0.611c0,0.04075 0.02448,4.03899 1.75216,6.86628c3.37799,0.50246 6.91718,1.10201 9.42784,2.06372c0.99311,0.38308 1.89219,0.78998 2.70396,1.20629c0.08579,0.0192 0.16734,0.06034 0.2334,0.1212c4.62713,2.43311 6.31849,5.13787 6.40264,5.2725c0.09,0.15 0.415,0.664 0.415,0.664c0,0 -0.605,0.086 -0.775,0.106c-4.7427,0.52516 -9.56746,1.50466 -13.81572,2.62109c2.76245,11.75568 -3.37943,20.19147 -3.44228,20.27691zM21.021,4.21c-1.87638,0.40576 -3.74723,0.95722 -5.21157,1.54922c0.93962,0.21245 2.61322,0.54917 5.54531,1.04388c-0.2161,-1.07562 -0.30055,-2.01343 -0.33374,-2.59311zM18.411,22.426c-1.31119,0.89796 -2.13368,1.5489 -2.3409,1.71628c-0.57246,0.83192 -1.22483,1.61231 -1.89513,2.34065c1.44761,-1.04801 2.94579,-2.47169 4.23603,-4.05693zM19.18327,20.7157c-0.48966,-0.26547 -0.96425,-0.45378 -1.30404,-0.57254c-0.13239,0.63811 -0.33695,1.2548 -0.5967,1.84992c0.53403,-0.3759 1.17147,-0.80896 1.90073,-1.27738zM21.34948,15.58943c-1.43984,-0.48489 -2.77324,-0.81071 -3.82193,-0.99847c0.30809,1.02225 0.50488,2.23793 0.52133,3.70803c0.73069,-0.66183 1.87012,-1.64292 3.3006,-2.70956zM13.87244,32.26375c1.22387,-1.81187 2.33823,-3.8263 2.88564,-5.75154c-1.0109,0.47084 -2.01226,0.98148 -2.96711,1.52421c-0.19662,0.39588 -1.00992,2.26666 0.08147,4.22733zM15.0595,32.2989c1.89794,-0.60995 3.89428,-1.43443 5.94964,-2.4595c-1.73201,-1.40457 -2.48667,-3.1045 -2.78053,-3.98208c-0.10413,0.04432 -0.20835,0.0891 -0.31262,0.13434c-0.44004,2.10628 -1.56694,4.31517 -2.85649,6.30725zM21.33463,28.84126c0.36492,-1.36438 0.66092,-2.85697 0.85724,-4.48314c-1.10171,0.37385 -2.10945,0.74457 -3.00188,1.10189c-0.01452,0.00582 -0.02904,0.01166 -0.04357,0.0175c0.20477,0.67947 0.77578,2.11389 2.1882,3.36376zM20.32982,21.50829c-0.91566,1.33316 -2.00262,2.605 -3.14245,3.71722c0.63725,-0.28215 1.19231,-0.51262 1.62262,-0.68551c0.7705,-0.30851 1.62508,-0.62671 2.55045,-0.94823c0.0049,-0.86045 -0.43827,-1.5486 -1.03062,-2.08348zM7.085,35.879c0.22262,0.88998 0.88201,1.70015 1.85985,2.41876c0.40415,-0.41336 2.00666,-2.08628 3.68668,-4.3038c-2.0011,0.44921 -3.86877,0.63553 -5.55709,0.54129c-0.09949,0.46405 -0.09701,0.91327 0.01056,1.34374zM10.337,38.289c1.18364,-0.06776 3.46915,-0.43251 7.20821,-1.90312c-0.59926,-0.28023 -1.20275,-0.59787 -1.80221,-0.95788c-0.76473,-0.45901 -1.36853,-0.94695 -1.8414,-1.44784c-1.36173,1.86833 -2.73339,3.41639 -3.5646,4.30884zM26.571,32.009c-1.95384,-0.21416 -3.46954,-0.78792 -4.6421,-1.5157c-0.0083,0.00424 -0.0166,0.00847 -0.0249,0.0127c-0.6018,1.90742 -1.32634,3.54073 -2.08036,4.92196c1.93185,-0.86128 4.17035,-1.9765 6.74736,-3.41896zM27.93888,31.09624c0.12799,-1.30553 0.16249,-2.70151 0.06268,-4.17429c-1.69659,1.12739 -3.38251,2.13979 -5.03976,3.03024c1.23935,0.64242 2.86061,1.09843 4.97708,1.14405zM24.238,41.999c0.28885,-0.43184 0.98266,-1.53854 1.70105,-3.1927c-2.78698,1.36397 -6.321,2.13286 -8.70488,2.52996c2.26658,0.4176 4.68493,0.64682 7.00384,0.66274zM27.76405,32.48439c-2.91402,1.65875 -5.42298,2.91985 -7.5696,3.8769c3.37588,1.12148 6.16834,1.13972 6.20655,1.13972c0.02055,0 0.04086,0.00125 0.06085,0.00369c0.52172,-1.40985 1.00656,-3.10028 1.3022,-5.0203zM10.58494,39.28044c1.09233,0.54343 2.3808,1.01373 3.78827,1.40324c0.38977,-0.31427 1.54191,-1.31208 2.85797,-3.09949c-3.24966,1.22371 -5.38039,1.60361 -6.64624,1.69625zM13.063,32.87c-0.8909,-1.5224 -0.81402,-3.03839 -0.57619,-4.07342c-2.59525,1.62402 -4.3133,3.24819 -5.05982,4.7542c1.70452,0.05995 3.60092,-0.17289 5.63601,-0.68078zM41.16,19.01c-0.75912,-0.88689 -2.34301,-2.51946 -5.14653,-4.06552c-1.00899,2.22147 -2.85027,4.45657 -3.90714,5.64114c2.9213,-0.64829 5.99639,-1.20104 9.05367,-1.57562z" id="strokeMainSVG" fill="#525252" stroke="#525252" stroke-width="6" stroke-linejoin="round"></path><g transform="scale(5.33333,5.33333)" stroke="none" stroke-width="1" stroke-linejoin="miter"><path d="M23.084,11.277c-1.633,-2.449 -1.986,-5.722 -2.063,-7.067c-4.148,0.897 -8.269,2.506 -8.031,3.691c0.03,0.149 0.218,0.328 0.53,0.502l-0.488,0.873c-0.596,-0.334 -0.931,-0.719 -1.022,-1.179c-0.269,-1.341 1.25,-2.554 4.642,-3.709c2.316,-0.789 4.652,-1.26 4.751,-1.279l0.597,-0.12l0,0.611c0,0.042 0.026,4.288 1.916,7.123z" fill="#cfd8dc"></path><path d="M24.751,43h-0.251c-8.192,0 -17.309,-2.573 -18.386,-6.879c-0.657,-2.63 1.492,-5.536 6.214,-8.401l0.52,0.854c-4.249,2.579 -6.296,5.172 -5.763,7.305c0.935,3.738 9.575,6.068 17.153,6.12c0.901,-1.347 5.742,-9.26 2.979,-19.873l0.967,-0.252c3.149,12.092 -3.218,20.837 -3.282,20.924z" fill="#cfd8dc"></path><path d="M9.931,39.306c-0.539,0 -0.806,-0.059 -0.85,-0.07c-0.176,-0.043 -0.314,-0.178 -0.362,-0.352c-0.049,-0.174 0.001,-0.361 0.129,-0.488c0.072,-0.072 7.197,-7.208 8.159,-12.978l0.986,0.164c-0.827,4.964 -5.715,10.623 -7.656,12.707c1.939,-0.111 6.835,-1.019 16.234,-6.28c-7.335,-0.804 -8.495,-6.676 -8.507,-6.739l0.983,-0.181c0.047,0.246 1.226,6.011 9.244,6.011c0.003,0 0.005,0 0.008,0v0c0.227,0 0.424,0.152 0.482,0.37c0.06,0.218 -0.036,0.449 -0.231,0.563c-11.235,6.509 -16.683,7.272 -18.619,7.273z" fill="#cfd8dc"></path><path d="M14.524,41.7c-0.207,0 -0.395,-0.128 -0.468,-0.325c-0.079,-0.211 -0.007,-0.45 0.177,-0.582c0.034,-0.025 1.813,-1.338 3.706,-4.228c-0.728,-0.322 -1.465,-0.698 -2.196,-1.137c-0.888,-0.533 -1.559,-1.105 -2.06,-1.691c-2.57,0.678 -4.942,0.946 -7.025,0.769l0.084,-0.996c1.876,0.159 4.009,-0.063 6.321,-0.64c-1.573,-2.688 -0.129,-5.356 -0.109,-5.392l0.874,0.487c-0.067,0.122 -1.265,2.37 0.249,4.633c2.201,-0.632 4.549,-1.567 6.979,-2.782c0.559,-1.835 0.996,-3.922 1.225,-6.276c0.016,-0.161 0.108,-0.304 0.248,-0.385c0.14,-0.081 0.311,-0.088 0.458,-0.021c0.032,0.015 3.264,1.491 5.604,2.454c0.17,0.07 0.288,0.228 0.307,0.411c0.02,0.183 -0.063,0.361 -0.216,0.465c-2.289,1.56 -4.563,2.913 -6.778,4.042c-0.702,2.225 -1.571,4.077 -2.459,5.591c3.702,1.383 6.915,1.404 6.956,1.404c0.228,0 0.427,0.154 0.484,0.375c0.057,0.221 -0.042,0.452 -0.241,0.563c-4.54,2.522 -11.767,3.232 -12.072,3.261c-0.016,-0.001 -0.032,0 -0.048,0zM18.909,36.967c-1.04,1.614 -2.062,2.773 -2.826,3.53c1.998,-0.294 5.501,-0.938 8.408,-2.139c-1.392,-0.171 -3.407,-0.551 -5.582,-1.391zM14.767,33.431c0.393,0.392 0.883,0.775 1.49,1.14c0.736,0.442 1.483,0.817 2.22,1.135c0.754,-1.264 1.501,-2.781 2.142,-4.568c-2.021,0.962 -3.983,1.73 -5.852,2.293zM23.202,24.329c-0.205,1.768 -0.521,3.381 -0.913,4.85c1.66,-0.885 3.354,-1.896 5.062,-3.026c-1.549,-0.656 -3.252,-1.419 -4.149,-1.824z" fill="#cfd8dc"></path><path d="M17.924,10.6c-0.117,0 -0.233,-0.042 -0.325,-0.12c-1.61,-1.378 -3.505,-4.182 -3.585,-4.301c-0.129,-0.191 -0.109,-0.446 0.046,-0.616c0.154,-0.171 0.408,-0.211 0.608,-0.102c0.011,0.003 0.938,0.385 7.217,1.431c0.181,0.03 0.33,0.156 0.39,0.328c0.061,0.172 0.022,0.364 -0.1,0.5c-1.758,1.953 -3.979,2.813 -4.073,2.848c-0.058,0.021 -0.119,0.032 -0.178,0.032zM15.647,6.746c0.631,0.849 1.54,1.996 2.372,2.769c0.511,-0.233 1.657,-0.818 2.744,-1.798c-2.583,-0.441 -4.159,-0.755 -5.116,-0.971z" fill="#cfd8dc"></path><path d="M21.843,24.4c-0.068,0 -0.137,-0.014 -0.201,-0.042c-0.199,-0.088 -0.319,-0.294 -0.296,-0.51c0.292,-2.749 -3.926,-3.852 -3.969,-3.862c-0.174,-0.044 -0.312,-0.179 -0.359,-0.352c-0.047,-0.173 0.002,-0.359 0.129,-0.486c0.207,-0.207 5.139,-5.098 11.327,-7.784c0.173,-0.075 0.369,-0.047 0.515,0.07c0.145,0.118 0.212,0.307 0.174,0.489c-1.186,5.744 -6.71,12.044 -6.944,12.309c-0.099,0.109 -0.237,0.168 -0.376,0.168zM18.455,19.285c1.184,0.445 3.258,1.475 3.783,3.356c1.449,-1.808 4.542,-5.973 5.697,-9.934c-4.387,2.11 -8.081,5.292 -9.48,6.578z" fill="#b71c1c"></path><path d="M13.079,28.36l-0.475,-0.88c1.883,-1.015 4.04,-2.883 5.807,-5.054c-1.504,1.03 -2.365,1.735 -2.392,1.758l-0.639,-0.77c0.039,-0.032 1.764,-1.447 4.631,-3.22c0.787,-1.266 1.392,-2.568 1.703,-3.816c0.053,-0.212 0.099,-0.417 0.136,-0.615c-1.925,-0.687 -3.701,-1.094 -4.921,-1.269c-0.185,-0.026 -0.339,-0.153 -0.401,-0.328c-0.062,-0.175 -0.021,-0.371 0.104,-0.507c0.085,-0.092 2.116,-2.268 4.654,-3.463c0.197,-0.093 0.433,-0.047 0.581,0.114c0.067,0.073 1.44,1.615 1.091,4.805c1.155,0.45 2.345,0.997 3.491,1.648c2.759,-1.24 5.892,-2.356 9.229,-3.03c0.172,-0.034 0.363,0.028 0.481,0.168c0.117,0.14 0.149,0.333 0.083,0.503c-1.3,3.332 -4.786,6.891 -4.934,7.041c-0.101,0.102 -0.239,0.153 -0.383,0.148c-0.143,-0.008 -0.275,-0.076 -0.365,-0.188c-1.12,-1.408 -2.584,-2.574 -4.163,-3.523c-2.175,1.004 -4.101,2.078 -5.684,3.049c-2.02,3.153 -5.069,6.048 -7.634,7.429zM27.492,17.396c1.29,0.832 2.491,1.81 3.484,2.948c0.828,-0.898 2.815,-3.168 3.942,-5.422c-2.65,0.61 -5.158,1.493 -7.426,2.474zM22.799,16.122c-0.033,0.163 -0.071,0.33 -0.113,0.5c-0.21,0.839 -0.544,1.701 -0.972,2.561c1.096,-0.626 2.309,-1.272 3.618,-1.898c-0.838,-0.444 -1.693,-0.83 -2.533,-1.163zM18.048,13.672c1.111,0.218 2.48,0.574 3.941,1.086c0.152,-1.843 -0.346,-2.972 -0.647,-3.472c-1.376,0.718 -2.581,1.728 -3.294,2.386z" fill="#b71c1c"></path><path d="M18.05,18.5c0,4.38 -3.65,7.86 -6.28,10.4c-0.44,0.43 -1.93,0.5 -1.93,0.5c0.37,-0.38 0.79,-0.78 1.24,-1.21c2.5,-2.42 5.97,-5.73 5.97,-9.69c0,-4.69 -1.89,-6.54 -3.38,-8.02c-0.66,-0.67 -1.22,-1.31 -1.56,-2.09l0.31,-0.13c0.34,0.15 0.73,0.32 1.03,0.45c0.24,0.35 0.56,0.69 0.93,1.06c1.53,1.53 3.67,3.63 3.67,8.73z" fill="#b71c1c"></path><path d="M42.935,19.794c0,0 -0.605,0.086 -0.775,0.106c-8.76,0.97 -17.8,3.49 -22.97,5.56c-1.87,0.75 -3.81,1.66 -5.58,2.68c-0.01,0.01 -0.02,0.01 -0.04,0.02c-1.04,0.6 -3.57,1.84 -5.62,2.93c3,-3.19 8.62,-5.65 10.86,-6.55c5.07,-2.03 13.78,-4.48 22.35,-5.53c-1.01,-1.18 -3.48,-3.68 -8.34,-5.54c-2.84,-1.1 -7.16,-1.72 -10.97,-2.27c-6.06,-0.87 -9.51,-1.45 -9.84,-3.1c-0.07,-0.33 -0.02,-0.66 0.13,-0.98c0.33,0.54 0.8,0.92 1.11,1.14c0.15,0.1 0.26,0.16 0.3,0.18l0.01,0.01c1.42,0.75 5.25,1.3 8.44,1.76c3.86,0.56 8.23,1.19 11.18,2.32c6.87,2.65 9.24,6.44 9.34,6.6c0.09,0.15 0.415,0.664 0.415,0.664z" fill="#b71c1c"></path></g></g></svg>